<svg xmlns="http://www.w3.org/2000/svg" version="1.0" width="1080.000000pt" height="1080.000000pt" viewBox="0 0 1080.000000 1080.000000" preserveAspectRatio="xMidYMid meet" fill="none">
  <g transform="translate(0.000000,1080.000000) scale(0.100000,-0.100000)" stroke="none">
    <path
      d="M6240 9473 c-8 -3 -45 -23 -81 -44 -87 -52 -129 -56 -609 -64 -706 -11 -1045 -31 -1421 -85 -569 -81 -1194 -130 -1704 -134 -282 -2 -303 -3 -356 -24 -30 -12 -67 -34 -82 -50 -71 -74 -93 -217 -63 -417 23 -153 31 -509 17 -825 -6 -146 -14 -291 -18 -323 l-6 -58 -97 -49 c-365 -183 -632 -396 -782 -625 -243 -370 -292 -517 -293 -875 0 -219 15 -311 81 -502 67 -192 225 -496 331 -635 96 -127 311 -311 578 -496 l78 -54 -2 -89 c-2 -79 1 -93 21 -123 51 -76 122 -98 201 -63 37 16 51 30 68 65 l22 45 76 -35 c296 -136 620 -241 856 -277 439 -67 869 -76 1253 -26 457 59 612 98 864 213 l77 35 59 -24 c132 -53 224 -69 407 -68 153 0 180 2 271 27 175 46 422 165 629 302 101 66 155 109 318 249 l57 48 37 -31 c127 -106 208 -164 258 -186 141 -63 287 -82 377 -51 122 43 317 168 545 352 51 41 96 74 99 74 9 0 -4 -126 -18 -174 -23 -76 -76 -109 -432 -273 -449 -205 -1212 -436 -2171 -657 -605 -139 -844 -183 -1485 -276 -585 -84 -535 -81 -1310 -90 -403 -5 -816 -16 -965 -24 -418 -25 -790 -55 -817 -65 -100 -38 -108 -190 -13 -235 73 -35 543 -32 1470 10 300 13 444 24 875 64 58 5 452 14 875 20 546 7 860 15 1080 29 748 47 917 48 1280 5 231 -27 871 -125 1205 -183 175 -31 357 -56 480 -66 61 -5 82 -2 110 12 93 48 107 167 28 241 -31 28 -109 42 -244 42 -236 0 -772 57 -1229 130 -448 71 -438 70 -583 82 -129 12 -192 10 -957 -18 -85 -3 -93 -2 -55 7 25 6 126 28 225 50 1220 271 2160 551 2586 770 108 56 223 148 285 230 81 106 79 93 82 388 l3 264 68 76 c131 146 353 460 441 622 126 235 144 451 45 538 -40 35 -149 57 -228 47 -100 -14 -290 -128 -404 -245 -147 -149 -205 -348 -219 -749 l-7 -199 -90 -74 c-165 -136 -432 -320 -580 -399 -69 -37 -84 -42 -127 -38 -57 6 -169 71 -255 150 l-55 50 56 61 c127 140 236 305 292 440 63 149 104 306 106 397 1 74 -2 92 -27 142 -31 63 -90 128 -139 154 -43 23 -164 23 -239 1 -149 -44 -367 -252 -463 -442 -71 -141 -112 -345 -95 -478 12 -95 31 -150 80 -232 48 -80 56 -66 -101 -192 -228 -183 -536 -339 -770 -388 -72 -15 -241 -20 -298 -9 l-30 6 66 58 c105 91 174 166 265 288 201 269 300 525 347 901 24 190 22 253 -11 373 -39 141 -106 231 -234 317 -95 63 -145 74 -355 75 -163 0 -167 0 -290 -37 -201 -60 -434 -184 -552 -295 -96 -90 -171 -241 -213 -431 -123 -549 -51 -836 303 -1212 l63 -67 -78 -30 c-156 -60 -350 -98 -652 -128 -293 -28 -832 -9 -1150 42 -216 34 -606 166 -841 284 l-83 42 9 56 c5 31 9 575 10 1207 0 1193 0 1168 42 1568 l7 69 60 25 c198 82 377 143 455 154 54 8 184 13 355 12 295 -1 319 -4 536 -68 64 -19 133 -35 153 -35 126 0 199 156 118 252 -34 41 -101 69 -250 107 -222 56 -317 65 -632 65 -330 -1 -364 -6 -580 -86 -74 -28 -144 -55 -154 -60 -18 -10 -19 -7 -13 68 16 200 29 561 23 674 -3 69 -15 177 -26 240 -11 63 -20 132 -20 152 0 41 23 71 49 64 127 -39 181 -42 451 -26 480 29 951 78 1260 130 445 75 830 99 1585 100 422 0 487 6 597 56 52 23 105 39 148 44 78 9 97 17 138 64 84 96 50 230 -70 281 -36 14 -137 19 -168 8z m-4386 -2509 c-24 -144 -29 -724 -15 -1614 6 -404 8 -750 4 -767 l-8 -32 -105 79 c-161 122 -291 249 -355 344 -73 110 -194 347 -238 466 -20 53 -45 143 -57 200 -19 92 -21 129 -17 300 3 141 9 212 21 254 55 195 270 519 432 652 119 97 346 243 352 226 1 -5 -5 -53 -14 -108z m7093 -1039 c-7 -41 -66 -175 -115 -259 -19 -34 -76 -119 -126 -189 l-91 -129 -3 37 c-5 51 40 201 91 304 33 69 60 105 132 179 99 101 121 112 112 57z m-3086 -80 c22 -16 55 -49 72 -74 32 -45 32 -48 35 -185 5 -212 -22 -372 -94 -561 -67 -173 -224 -400 -370 -534 -67 -61 -225 -181 -239 -181 -18 0 -129 99 -200 180 -99 112 -144 184 -180 292 -26 75 -29 96 -28 213 0 304 61 506 192 635 54 54 88 77 191 127 154 76 234 100 375 112 157 13 197 9 246 -24z m1515 -190 c9 -37 -13 -184 -40 -263 -32 -92 -75 -182 -125 -257 -42 -63 -168 -218 -181 -223 -17 -7 -34 77 -33 163 1 101 20 191 58 264 23 47 288 341 306 341 5 0 11 -11 15 -25z"
      stroke="#ffffff" 
      stroke-width="20" 
      stroke-linejoin="round"
      stroke-linecap="round"
      fill="transparent" 
      pathLength="1" 
      stroke-dasharray="1" 
      stroke-dashoffset="0" 
      style="animation: draw 5s ease-in-out forwards;"
    />
  </g>
</svg>

