
<svg version="1.0" xmlns="http://www.w3.org/2000/svg"
 width="100" height="100" viewBox="0 0 1080.000000 1080.000000"
 preserveAspectRatio="xMidYMid meet" fill="#ffffff" 
>

<g transform="translate(0.000000,1080.000000) scale(0.100000,-0.100000)"
fill="#ffffff" stroke="none">
<path d="M5165 7993 c-27 -1 -142 -7 -255 -13 -235 -13 -442 -31 -755 -66
-649 -73 -571 -69 -1290 -69 -375 0 -668 -4 -679 -9 -18 -9 -19 -18 -13 -135
10 -193 34 -351 69 -454 l32 -92 4 -254 c3 -212 1 -256 -10 -262 -80 -45 -198
-180 -237 -271 -24 -56 -56 -196 -75 -329 -23 -159 -56 -502 -56 -584 0 -89
29 -207 72 -288 40 -76 143 -179 226 -227 72 -41 70 -30 47 -240 -19 -176 -19
-230 -1 -230 19 0 32 60 52 250 9 85 18 156 19 158 1 2 47 -15 101 -37 172
-69 457 -144 671 -176 172 -26 426 -38 693 -32 260 6 407 20 630 59 143 25
122 25 305 4 174 -19 456 -20 596 -1 351 46 678 177 902 359 31 25 60 46 64
46 5 0 33 -20 63 -45 30 -25 79 -58 109 -72 45 -22 51 -28 35 -34 -562 -225
-739 -302 -1289 -556 l-280 -130 -95 -6 c-147 -10 -799 -56 -855 -61 -93 -8
-657 21 -1055 54 -63 5 -248 21 -410 34 -617 52 -775 45 -995 -43 -155 -62
-241 -134 -188 -156 75 -32 1194 -17 1878 26 141 9 191 8 295 -5 69 -8 188
-23 265 -31 145 -17 583 -74 599 -79 5 -1 -17 -19 -50 -38 -100 -62 -107 -68
-93 -84 21 -25 332 -15 487 17 97 20 60 52 -98 85 -47 9 -89 20 -93 24 -13 11
170 90 209 90 26 0 37 5 42 21 6 14 45 38 123 74 l114 53 405 26 c597 39 691
44 1080 61 665 28 1602 45 2575 45 1076 0 1241 7 1233 49 -3 14 -36 16 -323
16 -299 0 -974 -12 -2040 -35 -1147 -26 -1617 -43 -2265 -86 -536 -35 -586
-37 -580 -32 6 6 610 295 775 371 150 69 429 184 587 242 l119 44 87 -22 c77
-19 114 -21 327 -22 196 0 256 3 325 18 46 10 89 19 95 20 5 1 8 -7 5 -18 -10
-42 -4 -231 9 -268 18 -52 67 -107 116 -128 73 -32 191 -34 371 -5 597 94
1184 312 1313 487 113 153 88 294 -61 333 -199 52 -885 44 -1206 -14 -49 -9
-57 -8 -85 14 -64 48 -108 42 -196 -27 -47 -36 -70 -46 -141 -61 -238 -50
-529 -130 -799 -218 -111 -36 -162 -48 -185 -44 -38 7 -135 63 -191 110 l-39
34 39 46 c106 125 132 159 163 209 45 74 79 175 99 295 14 83 15 106 4 141
-34 114 -111 107 -243 -21 -116 -112 -176 -226 -198 -376 -15 -99 -4 -155 45
-236 l33 -56 -46 -41 c-176 -157 -507 -296 -847 -356 -80 -14 -151 -17 -360
-16 -143 1 -282 5 -310 10 l-50 9 146 47 c187 60 301 117 414 208 282 226 399
374 468 594 54 173 59 279 14 347 -12 18 -43 44 -69 56 -42 21 -66 24 -205 29
-306 10 -451 -28 -657 -175 -106 -76 -181 -152 -272 -274 -85 -114 -155 -249
-180 -348 -44 -175 17 -357 148 -442 60 -39 61 -39 -129 -67 -197 -29 -460
-51 -604 -51 -197 0 -493 19 -626 40 -199 32 -515 118 -716 196 l-49 19 9 140
c9 157 9 378 -2 1090 l-7 490 84 47 c200 113 482 216 685 249 182 29 391 42
527 31 115 -10 146 -8 146 7 0 23 -63 31 -243 31 -300 0 -484 -28 -725 -111
-169 -57 -302 -114 -396 -169 -38 -22 -70 -40 -72 -40 -2 0 -4 71 -4 158 0
203 -14 326 -46 419 -34 98 -63 276 -71 430 l-6 121 59 -4 c165 -11 286 -11
694 -4 515 10 603 16 1150 75 509 55 505 54 865 65 308 8 369 16 345 45 -12
15 -25 15 -145 8z m-2865 -2338 c13 -228 8 -364 -27 -662 l-6 -53 -46 26 c-70
38 -166 128 -204 192 -38 62 -71 158 -81 237 -13 89 36 571 79 781 14 70 35
149 47 176 28 65 96 152 161 207 l52 44 6 -359 c3 -198 12 -462 19 -589z
m3264 315 c22 -5 53 -22 70 -39 28 -29 31 -38 34 -111 5 -99 -27 -222 -92
-355 -59 -119 -123 -202 -237 -306 -191 -173 -281 -235 -435 -297 -111 -45
-302 -102 -344 -102 -45 0 -146 73 -184 133 -116 181 -75 384 133 665 178 240
416 392 656 421 88 11 337 5 399 -9z m996 -120 c28 -28 27 -131 -4 -252 -37
-146 -101 -257 -224 -388 -51 -54 -52 -55 -68 -35 -9 11 -28 44 -41 74 -23 48
-25 62 -20 140 6 103 32 179 94 273 60 91 189 208 231 208 6 0 21 -9 32 -20z
m2490 -530 c112 -15 162 -37 183 -83 21 -43 21 -63 2 -116 -36 -104 -131 -192
-282 -262 -99 -46 -396 -158 -513 -193 -220 -66 -604 -137 -755 -139 -110 -2
-153 12 -207 70 -38 39 -62 138 -56 228 7 107 19 123 108 152 99 32 223 92
283 138 52 39 91 105 85 140 -4 21 1 23 61 34 62 10 337 36 476 45 107 7 528
-3 615 -14z m-1226 -3 c17 -12 10 -15 -54 -26 -40 -6 -75 -9 -77 -7 -9 9 62
46 88 46 14 0 33 -6 43 -13z m46 -62 c0 -56 -73 -123 -195 -181 -99 -46 -205
-87 -205 -79 0 35 130 221 164 236 21 9 172 36 214 38 14 1 22 -5 22 -14z
m-310 -41 c0 -3 -16 -26 -35 -51 -20 -26 -50 -76 -67 -112 -18 -36 -37 -69
-42 -73 -5 -3 -57 -16 -115 -29 -90 -20 -136 -23 -301 -24 -190 0 -380 19
-363 36 15 15 470 150 668 199 267 65 255 63 255 54z m-5440 -944 c102 -6 277
-17 390 -26 282 -21 594 -44 598 -44 1 0 2 -6 2 -14 0 -8 15 -20 33 -27 30
-12 27 -13 -68 -20 -286 -21 -673 -31 -955 -25 -525 11 -723 18 -707 28 9 4
47 19 86 32 39 13 94 38 121 56 79 51 169 58 500 40z m2623 -90 l-83 -39 -157
14 c-87 8 -183 15 -213 16 l-55 1 40 9 c43 9 391 35 490 37 l60 1 -82 -39z
m-808 -44 c88 -8 246 -19 350 -26 105 -6 210 -13 233 -16 l44 -6 -76 -36 -77
-36 -142 23 c-169 26 -376 55 -507 71 -52 6 -108 14 -125 18 -29 7 -12 10 120
20 11 1 92 -5 180 -12z m657 -176 c76 -13 81 -30 10 -30 -26 0 -102 -7 -167
-15 -66 -8 -138 -15 -160 -15 -37 0 -34 2 40 28 44 16 89 34 100 40 21 13 65
11 177 -8z"/>
</g>
</svg>